Coordinates
version=1
nRows=5
nColumns=42
inDegrees=yes

Units are S.I. units (second, meters, Newtons, ...)
If the header above contains a line with 'inDegrees', this indicates whether rotational values are in degrees (yes) or radians (no).

endheader
time	pelvis_tilt	pelvis_list	pelvis_rotation	pelvis_tx	pelvis_ty	pelvis_tz	hip_flexion_r	hip_adduction_r	hip_rotation_r	knee_angle_r	knee_adduction_r	knee_angle_r_beta	ankle_angle_r	subtalar_angle_r	mtp_angle_r	hip_flexion_l	hip_adduction_l	hip_rotation_l	knee_angle_l	knee_adduction_l	knee_angle_l_beta	ankle_angle_l	subtalar_angle_l	mtp_angle_l	lumbar_extension	lumbar_bending	lumbar_rotation	arm_flex_r	arm_add_r	arm_rot_r	elbow_flex_r	pro_sup_r	wrist_flex_r	wrist_dev_r	arm_flex_l	arm_add_l	arm_rot_l	elbow_flex_l	pro_sup_l	wrist_flex_l	wrist_dev_l
      2.18000000	      1.66188636	     -0.60182495	     -0.53676118	     -0.78547970	      0.86583367	      0.17353987	     17.07088612	      6.56313035	    -38.43033571	     29.59590921	    -22.32741505	      0.51654606	     23.58059632	     29.67721137	     -7.50042428	     31.57943738	      1.48858393	     -1.68267985	     71.87615750	     -2.80272233	      1.25447560	      8.07044878	    -18.09488114	     -7.50042428	    -21.91309463	      1.23777322	      2.98467942	     17.03791968	    -13.99153316	     11.41333496	     35.93734576	     90.00000001	      0.00000000	      0.00000000	      4.64709221	    -16.04256722	     19.07170781	     34.14692208	     90.00000001	      0.00000000	      0.00000000
      2.19000000	      1.80061063	     -0.57006608	     -1.04515652	     -0.77401264	      0.86629267	      0.17460771	     15.74059865	      6.56764707	    -38.55852423	     29.02592265	    -22.21544623	      0.50659792	     24.30592597	     30.90691035	     -7.50040502	     32.37597245	      1.47897089	     -2.34031123	     69.31066900	     -3.05004003	      1.20969938	      8.05901198	    -18.05746790	     -7.50040502	    -22.06146720	      1.10677733	      3.45551820	     17.71325675	    -14.44528036	     11.98146091	     36.98283861	     90.00000001	      0.00000000	      0.00000000	      3.70703481	    -15.59807168	     18.99351699	     33.41168351	     90.00000001	      0.00000000	      0.00000000
      2.20000000	      1.84519487	     -0.54899413	     -1.48919979	     -0.76257352	      0.86637788	      0.17566238	     14.55136428	      6.62692396	    -38.54548558	     28.55023655	    -22.12380579	      0.49829563	     24.69282989	     30.88349985	     -7.50039795	     33.13688652	      1.49165815	     -2.68801342	     66.45193381	     -3.13496644	      1.15980504	      8.17023969	    -17.99655478	     -7.50039795	    -22.08582042	      0.98437192	      3.83936054	     18.47554306	    -14.63621583	     12.06465794	     37.65791764	     90.00000001	      0.00000000	      0.00000000	      2.65574562	    -15.30591893	     19.00294688	     33.00928723	     90.00000001	      0.00000000	      0.00000000
      2.21000000	      2.09737400	     -0.58353972	     -2.01090160	     -0.75092339	      0.86658344	      0.17663428	     13.07172115	      6.59770173	    -38.77695497	     27.96960018	    -21.98285741	      0.48816161	     25.63933599	     33.12809526	     -7.50036594	     33.52962015	      1.37665399	     -4.02041267	     63.28343529	     -4.08297795	      1.10450431	      7.84576994	    -17.82038966	     -7.50036594	    -22.35941068	      0.92705677	      4.42915515	     18.92800357	    -15.48743668	     13.26993084	     39.25283436	     90.00000001	      0.00000000	      0.00000000	      1.87389329	    -14.57022310	     18.27113023	     32.02473195	     90.00000001	      0.00000000	      0.00000000
      2.22000000	      2.27387681	     -0.62878853	     -2.43030257	     -0.73930281	      0.86646041	      0.17754415	     11.69894591	      6.62612148	    -38.78191206	     27.53965824	    -21.78181567	      0.48065771	     26.33558497	     33.53820338	     -7.50035472	     33.85238192	      1.30365031	     -4.87335952	     59.84192490	     -4.69784990	      1.04443862	      7.66864470	    -17.65997779	     -7.50035472	    -22.52853711	      0.90029875	      4.77107515	     19.65478254	    -15.74790502	     13.45306385	     40.07009123	     90.00000001	      0.00000000	      0.00000000	      0.86602636	    -14.18618394	     18.07288018	     31.57458680	     90.00000001	      0.00000000	      0.00000000
